<svg width="98.48mm" height="187.32mm" viewBox="0 0 98.48 187.32" xmlns="http://www.w3.org/2000/svg" version="1.1" preserveAspectRatio="xMidYMid meet"><g id="svgGroup" stroke-linecap="round" fill-rule="evenodd" font-size="9pt" stroke="#000" stroke-width="0.25mm" fill="none" style="stroke:#000;stroke-width:0.25mm;fill:none"><path d="M 13.16 155.022 L 10.66 155.022 L 10.66 127.458 L 13.16 127.458 L 13.16 95.16 L 0 95.16 L 0 127.458 L 2.5 127.458 L 2.5 155.022 L 0 155.022 L 0 187.32 L 13.16 187.32 L 13.16 155.022 Z" id="front_outsideCutPath" stroke="#FF0000" stroke-width="0.1" style="stroke:#FF0000;stroke-width:0.1" vector-effect="non-scaling-stroke"/><path d="M 35.458 184.82 L 63.022 184.82 L 63.022 187.32 L 79.82 187.32 L 79.82 155.182 L 82.32 155.182 L 82.32 127.298 L 79.82 127.298 L 79.82 95.16 L 18.66 95.16 L 18.66 127.298 L 16.16 127.298 L 16.16 155.182 L 18.66 155.182 L 18.66 187.32 L 35.458 187.32 L 35.458 184.82 Z" id="left_outsideCutPath" stroke="#FF0000" stroke-width="0.1" style="stroke:#FF0000;stroke-width:0.1" vector-effect="non-scaling-stroke"/><path d="M 13.16 59.862 L 10.66 59.862 L 10.66 32.298 L 13.16 32.298 L 13.16 0 L 0 0 L 0 32.298 L 2.5 32.298 L 2.5 59.862 L 0 59.862 L 0 92.16 L 13.16 92.16 L 13.16 59.862 Z" id="back_outsideCutPath" stroke="#FF0000" stroke-width="0.1" style="stroke:#FF0000;stroke-width:0.1" vector-effect="non-scaling-stroke"/><path d="M 35.458 89.66 L 63.022 89.66 L 63.022 92.16 L 79.82 92.16 L 79.82 60.022 L 82.32 60.022 L 82.32 32.138 L 79.82 32.138 L 79.82 0 L 18.66 0 L 18.66 32.138 L 16.16 32.138 L 16.16 60.022 L 18.66 60.022 L 18.66 92.16 L 35.458 92.16 L 35.458 89.66 Z" id="right_outsideCutPath" stroke="#FF0000" stroke-width="0.1" style="stroke:#FF0000;stroke-width:0.1" vector-effect="non-scaling-stroke"/><path d="M 95.98 170.682 L 98.48 170.682 L 98.48 142.798 L 95.98 142.798 L 95.98 126.16 L 87.82 126.16 L 87.82 142.798 L 85.32 142.798 L 85.32 170.682 L 87.82 170.682 L 87.82 187.32 L 95.98 187.32 L 95.98 170.682 Z" id="bottom_outsideCutPath" stroke="#FF0000" stroke-width="0.1" style="stroke:#FF0000;stroke-width:0.1" vector-effect="non-scaling-stroke"/></g></svg>